<svg width="32" height="32" viewBox="0 0 32 32" fill="none" xmlns="http://www.w3.org/2000/svg">
<path d="M13.286 2.66699C5.943 2.69399 0 8.65299 0 16C0 21.599 3.452 26.393 8.343 28.368L8.432 28.4C8.299 27.347 8.205 25.733 8.472 24.573L10.032 17.946C10.032 17.946 9.632 17.146 9.632 15.973C9.632 14.12 10.712 12.746 12.059 12.746C13.192 12.746 13.752 13.599 13.752 14.613C13.752 15.76 13.019 17.466 12.632 19.053C12.312 20.386 13.299 21.466 14.619 21.466C16.992 21.466 18.806 18.973 18.806 15.373C18.806 12.173 16.513 9.95999 13.233 9.95999C13.157 9.95599 13.069 9.95399 12.98 9.95399C9.791 9.95399 7.207 12.539 7.207 15.727C7.207 15.729 7.207 15.731 7.207 15.733C7.207 16.88 7.647 18.106 8.194 18.773C8.301 18.906 8.314 19.026 8.274 19.16L7.901 20.667C7.848 20.907 7.701 20.974 7.461 20.854C5.781 20.067 4.741 17.654 4.741 15.681C4.741 11.481 7.808 7.62799 13.568 7.62799C18.181 7.62799 21.795 10.908 21.795 15.321C21.795 19.921 18.888 23.614 14.862 23.614C13.529 23.614 12.249 22.907 11.822 22.081L10.982 25.241C10.551 26.578 9.99 27.739 9.294 28.804L9.328 28.748C10.498 29.12 11.844 29.335 13.239 29.335C20.603 29.335 26.572 23.365 26.572 16.002C26.572 8.65499 20.63 2.69599 13.29 2.66899H13.287L13.286 2.66699Z" fill="black"/>
</svg>
